<svg width="44" height="54" viewBox="0 0 44 54" fill="none" xmlns="http://www.w3.org/2000/svg">
<g clip-path="url(#clip0)">
<path d="M24.2771 4.69976C27.8233 0.0235299 32.7534 0.000732422 32.7534 0.000732422C32.7534 0.000732422 33.4868 4.39718 29.9638 8.63236C26.2021 13.1546 21.9265 12.4146 21.9265 12.4146C21.9265 12.4146 21.1236 8.85803 24.2771 4.69976ZM22.3775 15.4943C24.2019 15.4943 27.5878 12.9853 31.995 12.9853C39.5813 12.9853 42.5657 18.386 42.5657 18.386C42.5657 18.386 36.7287 21.3718 36.7287 28.6166C36.7287 36.7893 44 39.6059 44 39.6059C44 39.6059 38.9171 53.9193 32.0515 53.9193C28.8981 53.9193 26.4466 51.7932 23.1241 51.7932C19.7382 51.7932 16.3781 53.9986 14.1897 53.9986C7.92039 53.9987 2.28882e-05 40.421 2.28882e-05 29.5068C2.28882e-05 18.7688 6.70409 13.1358 12.9922 13.1358C17.0801 13.1358 20.2523 15.4943 22.3775 15.4943Z" fill="#999999"/>
</g>
<defs>
<clipPath id="clip0">
<rect width="44" height="54" fill="white"/>
</clipPath>
</defs>
</svg>
