<svg width="82" height="64" viewBox="0 0 82 64" fill="none" xmlns="http://www.w3.org/2000/svg">
<g clip-path="url(#clip0)">
<path d="M17.2409 42.8772C16.2342 43.054 15.2098 43.107 14.15 43.2482L10.9177 33.7811V43.6545C9.911 43.7604 8.99257 43.9017 8.03879 44.043V25.9566H10.7236L14.3973 36.2187V25.9566H17.2409V42.8772ZM22.8046 32.58C23.8998 32.58 25.5777 32.527 26.5844 32.527V35.353C25.3303 35.353 23.8644 35.353 22.8046 35.406V39.6097C24.4649 39.5038 26.1252 39.3624 27.8031 39.3094V42.0292L19.9785 42.6476V25.9566H27.8031V28.7826H22.8046V32.58ZM38.3122 28.7827H35.3803V41.7823C34.4265 41.7823 33.4727 41.7823 32.5544 41.8175V28.7827H29.6225V25.9566H38.3123L38.3122 28.7827ZM42.9044 32.3858H46.7725V35.2118H42.9044V41.6233H40.1312V25.9566H48.0266V28.7826H42.9044V32.3858ZM52.6188 39.1505C54.2261 39.1857 55.851 39.3096 57.423 39.3977V42.1885C54.8973 42.0294 52.3715 41.8706 49.7928 41.8175V25.9566H52.6188V39.1505ZM59.8074 42.3828C60.7082 42.4358 61.662 42.4888 62.5804 42.5946V25.9566H59.8074V42.3828ZM74.9619 25.9566L71.3763 34.5583L74.9619 44.043C73.902 43.9017 72.8423 43.7074 71.7825 43.5308L69.7514 38.3028L67.6851 43.107C66.6605 42.9302 65.6714 42.8772 64.6472 42.7359L68.2856 34.4522L65.0003 25.9566H68.0381L69.8926 30.7078L71.8709 25.9566H74.9619Z" fill="#D81F26"/>
</g>
<defs>
<clipPath id="clip0">
<rect width="82" height="64" fill="white"/>
</clipPath>
</defs>
</svg>
