<svg width="64" height="64" viewBox="0 0 64 64" fill="none" xmlns="http://www.w3.org/2000/svg">
<path d="M50.9071 28.3746C40.6051 22.2564 23.6121 21.694 13.7774 24.6788C12.1977 25.158 10.5278 24.2666 10.0496 22.6872C9.57097 21.1069 10.4614 19.4379 12.0417 18.9579C23.3316 15.5311 42.0983 16.1929 53.9583 23.2331C55.3792 24.0766 55.8446 25.911 55.0028 27.329C54.1601 28.7496 52.324 29.2182 50.9068 28.3746H50.9071ZM50.5696 37.4362C49.8469 38.6091 48.3133 38.9769 47.142 38.2568C38.5536 32.9775 25.4565 31.4479 15.2953 34.5323C13.9778 34.9302 12.5858 34.1877 12.1857 32.8722C11.9949 32.2398 12.0627 31.5576 12.3742 30.9751C12.6857 30.3926 13.2154 29.9574 13.8473 29.7649C25.4548 26.2422 39.8852 27.9482 49.7499 34.0105C50.9211 34.7318 51.2898 36.266 50.5696 37.4362ZM46.6589 46.1387C46.5228 46.3623 46.3439 46.5569 46.1325 46.7112C45.9211 46.8656 45.6813 46.9768 45.4269 47.0383C45.1725 47.0999 44.9084 47.1107 44.6498 47.0701C44.3912 47.0295 44.1432 46.9383 43.9199 46.8017C36.4149 42.2148 26.9684 41.1789 15.8435 43.7201C15.5885 43.7784 15.3246 43.7859 15.0668 43.7422C14.809 43.6984 14.5624 43.6044 14.3409 43.4653C14.1195 43.3262 13.9276 43.1449 13.7763 42.9317C13.6249 42.7184 13.5171 42.4775 13.4589 42.2225C13.4002 41.9675 13.3925 41.7035 13.4361 41.4455C13.4797 41.1875 13.5738 40.9406 13.7129 40.7191C13.852 40.4975 14.0335 40.3055 14.2469 40.1542C14.4604 40.0028 14.7016 39.8951 14.9567 39.8371C27.131 37.0543 37.5739 38.2519 45.998 43.3995C46.2213 43.5359 46.4155 43.715 46.5696 43.9265C46.7237 44.138 46.8346 44.3778 46.896 44.6322C46.9574 44.8865 46.9681 45.1505 46.9275 45.409C46.8868 45.6675 46.7956 45.9155 46.6591 46.1387H46.6589ZM32.0012 0.0414276C14.351 0.0414276 0.041748 14.3501 0.041748 32.0009C0.041748 49.6534 14.351 63.9615 32.0015 63.9615C49.6528 63.9615 63.9619 49.6534 63.9619 32.0009C63.9619 14.3504 49.6531 0.0414276 32.0015 0.0414276" fill="#1ED660"/>
</svg>
