<svg width="89" height="58" viewBox="0 0 89 58" fill="none" xmlns="http://www.w3.org/2000/svg">
<path d="M18.2055 41.1212V33.2755L24.0999 16.6549H21.598L16.9946 29.9299L13.0016 18.9538H10.2695L15.6936 33.1875V41.1212H18.2055Z" fill="#FF0000"/>
<path d="M29.0534 38.0583C28.603 38.7333 27.7524 39.2909 26.8917 39.2909C25.6208 39.2909 25.0203 38.117 25.0203 36.317C25.0203 34.3018 25.6908 32.9714 28.7632 32.9714H29.0534V38.0583ZM31.4952 37.5888V30.242C31.4952 26.4562 29.934 25.2822 27.1119 25.2822C25.5007 25.2822 24.0396 25.9279 23.309 26.5148L23.7794 28.6572C24.61 27.9431 25.6908 27.2975 26.9518 27.2975C28.3528 27.2975 29.0534 28.1583 29.0534 30.2127V31.142H28.7031C24.2297 31.142 22.4784 33.2453 22.4784 36.6007C22.4784 39.6725 24.0396 41.3453 26.3213 41.3453C27.7224 41.3453 28.603 40.7485 29.3036 39.8877H29.4637C29.4937 40.2888 29.5938 40.7877 29.6839 41.1203H31.7754C31.6553 40.3768 31.4952 39.0757 31.4952 37.5888ZM37.0494 28.9996C37.6199 28.2268 38.5005 27.454 39.5513 27.454C40.502 27.454 41.0424 27.8551 41.0424 29.029V41.1203H43.5443V28.8138C43.5443 26.4268 42.4335 25.2822 40.3419 25.2822C38.8508 25.2822 37.6499 26.2409 37.1995 26.8279H37.0494V25.4681H34.5675V41.1203H37.0494V28.9996ZM50.8398 41.3453C52.1408 41.3453 53.0315 40.7485 53.732 39.8877H53.8922L54.0823 41.1203H55.9237V18.9529H53.4418V25.8692C52.9715 25.5268 52.1809 25.2822 51.4203 25.2822C48.2079 25.2822 45.9862 28.0996 45.9862 33.9007C45.9862 38.7333 47.7075 41.3453 50.8398 41.3453ZM53.4418 38.0877C53.0315 38.704 52.371 39.2909 51.1301 39.2909C49.3187 39.2909 48.6282 37.0605 48.6282 33.4018C48.6282 30.2127 49.5789 27.2681 51.5704 27.2681C52.401 27.2681 52.9414 27.5127 53.4418 28.0116V38.0877ZM67.5625 40.0735L66.9921 38.2148C66.3616 38.6453 65.3408 39.2616 63.9498 39.2616C61.9783 39.2616 60.9675 37.4029 60.9675 33.8714H67.6225V32.5311C67.6225 27.229 65.8812 25.2822 63.2192 25.2822C59.8266 25.2822 58.3956 28.9409 58.3956 33.9594C58.3956 38.7725 60.4271 41.3453 63.7196 41.3453C65.3108 41.3453 66.5517 40.8464 67.5625 40.0735ZM63.2192 27.2681C64.6403 27.2681 65.0906 29.2148 65.0906 31.8855H60.9975C61.1576 29.0975 61.6981 27.2681 63.2192 27.2681ZM75.9688 25.4975L73.7772 31.1714L71.7156 25.4975H69.1537L72.166 33.0301L68.8335 41.1203H71.2753L73.6871 34.6735L76.159 41.1203H78.7309L75.3984 32.8148L78.3807 25.4975H75.9688Z" fill="white"/>
</svg>
