<svg width="95" height="63" viewBox="0 0 95 63" fill="none" xmlns="http://www.w3.org/2000/svg">
<path d="M76.2117 17.0576C75.5224 14.4761 73.4919 12.4431 70.9131 11.7531C66.24 10.4992 47.4997 10.4992 47.4997 10.4992C47.4997 10.4992 28.7596 10.4992 24.0862 11.7531C21.5074 12.4431 19.4764 14.4761 18.7876 17.0576C17.5355 21.7366 17.5355 31.4994 17.5355 31.4994C17.5355 31.4994 17.5355 41.2616 18.7876 45.9411C19.4764 48.5229 21.5074 50.5554 24.0859 51.2461C28.7593 52.4995 47.4994 52.4995 47.4994 52.4995C47.4994 52.4995 66.2397 52.4995 70.9129 51.2461C73.4917 50.5556 75.5222 48.5229 76.2114 45.9414C77.4638 41.2618 77.4638 31.4996 77.4638 31.4996C77.4638 31.4996 77.4638 21.7369 76.2114 17.0579" fill="#FF0000"/>
<path d="M41.3708 40.3633L57.0339 31.5001L41.3708 22.6358V40.3633Z" fill="white"/>
</svg>
