<svg width="74" height="91" viewBox="0 0 74 91" fill="none" xmlns="http://www.w3.org/2000/svg">
<g clip-path="url(#clip0)">
<path d="M15.1111 32H64.8889L59.5556 90.6667H20.4444L15.1111 32Z" fill="#EA5A47"/>
<path d="M66.0834 32.4324L71.1668 29.6823L70.2274 28.1337C72.2969 27.4011 73.7796 25.4288 73.7778 23.1093C73.776 20.5607 71.981 18.4324 69.5868 17.9079C70.6441 15.894 70.3524 13.3593 68.6615 11.6718C67.1527 10.1614 64.9653 9.76391 63.0798 10.4427C62.9289 8.77422 62.0069 7.20142 60.448 6.30204C59.0277 5.48267 57.3941 5.41316 55.9636 5.93404C55.8108 3.72391 54.3056 1.75342 52.0521 1.15111C50.3385 0.691022 48.6041 1.13369 47.3228 2.17013C46.7067 1.92196 46.0382 1.77778 45.3333 1.77778C44.901 1.77778 44.486 1.84373 44.0834 1.94098C43.1042 0.763911 41.6492 0 40 0C38.3508 0 36.894 0.763911 35.9166 1.94098C35.514 1.84373 35.099 1.77778 34.6667 1.77778C33.9636 1.77778 33.2969 1.92196 32.6823 2.16836C31.4011 1.13369 29.6667 0.691022 27.9548 1.15111C25.3195 1.8576 23.7031 4.42009 24.0798 7.05564C22.4114 5.48604 19.8645 5.09902 17.7796 6.30204C16.3212 7.14418 15.434 8.57298 15.1963 10.118C13.8021 10.0937 12.4028 10.6076 11.3403 11.6702C9.64925 13.3611 9.35413 15.8976 10.408 17.9079C8.01565 18.4357 6.22222 20.5607 6.224 23.1093C6.22578 25.4393 7.71876 27.4185 9.80214 28.1458L9.27787 29.8212L14.7778 33.2656" fill="#FCEA2B"/>
<path d="M70.2274 28.1337C72.2969 27.4011 73.7796 25.4288 73.7778 23.1093C73.776 20.5607 71.981 18.4324 69.5868 17.9079C70.6441 15.894 70.3524 13.3593 68.6615 11.6718C67.1527 10.1614 64.9653 9.76391 63.0798 10.4427C62.9289 8.77422 62.0069 7.20142 60.448 6.30204C59.0277 5.48267 57.3941 5.41316 55.9636 5.93404C55.8108 3.72391 54.3056 1.75342 52.0521 1.15111C50.3385 0.691022 48.6041 1.13369 47.3228 2.17013C46.7067 1.92196 46.0382 1.77778 45.3333 1.77778C44.901 1.77778 44.486 1.84373 44.0834 1.94098C43.1042 0.763911 41.6492 0 40 0C38.3508 0 36.894 0.763911 35.9166 1.94098C35.514 1.84373 35.099 1.77778 34.6667 1.77778C33.9636 1.77778 33.2969 1.92196 32.6823 2.16836C31.4011 1.13369 29.6667 0.691022 27.9548 1.15111C25.3195 1.8576 23.7031 4.42009 24.0798 7.05564C22.4114 5.48604 19.8645 5.09902 17.7796 6.30204C16.3212 7.14418 15.434 8.57298 15.1963 10.118C13.8021 10.0937 12.4028 10.6076 11.3403 11.6702C9.64925 13.3611 9.35413 15.8976 10.408 17.9079C8.01565 18.4357 6.22222 20.5607 6.224 23.1093C6.22578 25.4393 7.71876 27.4185 9.80214 28.1458" stroke="black" stroke-width="2" stroke-miterlimit="10" stroke-linecap="round" stroke-linejoin="round"/>
<path d="M15.1111 32H64.8889L59.5556 90.6667H20.4444L15.1111 32Z" stroke="black" stroke-width="2" stroke-miterlimit="10" stroke-linecap="round" stroke-linejoin="round"/>
<path d="M22.2222 21.3333C22.2222 18.3872 24.6112 16 27.5556 16" stroke="black" stroke-width="2" stroke-miterlimit="10" stroke-linecap="round" stroke-linejoin="round"/>
<path d="M36.4445 16C36.4445 13.0539 38.8317 10.6667 41.7778 10.6667" stroke="black" stroke-width="2" stroke-miterlimit="10" stroke-linecap="round" stroke-linejoin="round"/>
</g>
<defs>
<clipPath id="clip0">
<rect width="74" height="91" fill="white"/>
</clipPath>
</defs>
</svg>
